<?xml version="1.0" standalone="no"?>
<!DOCTYPE svg PUBLIC "-//W3C//DTD SVG 20010904//EN"
 "http://www.w3.org/TR/2001/REC-SVG-20010904/DTD/svg10.dtd">
<svg version="1.0" xmlns="http://www.w3.org/2000/svg"
 width="1024.000000pt" height="1024.000000pt" viewBox="0 0 1024.000000 1024.000000"
 preserveAspectRatio="xMidYMid meet">
<metadata>
Created by potrace 1.14, written by Peter Selinger 2001-2017
</metadata>
<g transform="translate(0.000000,1024.000000) scale(0.100000,-0.100000)"
fill="#000000" stroke="none">
<path d="M4985 10003 c-1145 -30 -2221 -454 -3095 -1219 -126 -110 -397 -386
-496 -504 -673 -804 -1055 -1728 -1145 -2765 -15 -180 -15 -610 0 -790 90
-1037 472 -1961 1145 -2765 158 -189 459 -481 676 -656 1010 -816 2359 -1198
3648 -1034 986 126 1888 530 2617 1173 1264 1113 1862 2751 1614 4417 -128
858 -492 1673 -1057 2365 -134 163 -479 511 -637 641 -760 627 -1628 999
-2585 1108 -185 21 -494 34 -685 29z m-1195 -3002 c-102 -425 -175 -942 -182
-1286 l-3 -130 152 -17 c315 -35 577 -50 970 -55 428 -6 674 3 1008 37 323 34
292 26 299 74 3 22 9 133 13 246 l7 205 13 -80 c6 -44 15 -153 19 -241 l7
-162 36 4 c20 3 103 11 185 19 81 8 151 16 154 19 3 3 0 144 -7 312 -7 168
-10 308 -8 310 13 13 67 -432 67 -550 l0 -68 58 7 c31 4 60 9 65 12 14 8 5
425 -17 798 l-5 80 14 -65 c34 -161 60 -397 71 -654 l7 -158 86 6 c47 4 88 10
91 13 3 2 7 82 10 176 5 187 13 170 26 -56 l7 -117 56 5 c167 16 255 28 334
47 l87 20 0 68 c0 77 -2 75 89 86 l61 7 1 111 2 111 15 -107 c18 -127 -3 -117
199 -88 209 30 187 13 179 133 -6 87 -26 282 -41 407 -10 81 48 -178 74 -327
15 -90 30 -165 33 -168 3 -3 59 2 123 12 l117 17 -7 95 c-21 287 -112 687
-220 964 -6 14 7 11 66 -17 41 -19 104 -48 141 -64 129 -58 197 -162 263 -397
64 -225 124 -322 258 -418 78 -56 182 -166 226 -240 97 -165 106 -268 46 -527
-33 -141 -39 -182 -39 -285 -1 -134 2 -144 117 -425 85 -206 109 -296 110
-415 0 -126 -18 -177 -108 -298 -133 -179 -169 -277 -170 -457 0 -93 5 -131
25 -200 15 -50 25 -111 25 -148 0 -62 -1 -65 -41 -100 -22 -20 -65 -56 -96
-79 -65 -49 -113 -117 -133 -188 -8 -27 -19 -125 -25 -218 -5 -92 -16 -180
-22 -196 -7 -16 -36 -47 -65 -70 -104 -81 -148 -177 -166 -365 l-12 -118 -145
-134 c-351 -322 -675 -546 -1090 -754 -903 -453 -1925 -598 -2930 -414 -754
138 -1474 470 -2082 960 -125 101 -397 349 -403 368 -3 6 -9 54 -14 106 -19
172 -64 270 -161 348 -30 25 -61 58 -68 74 -7 16 -17 101 -22 189 -6 88 -15
180 -20 205 -21 95 -70 159 -183 242 -107 80 -117 115 -72 276 61 223 34 417
-83 590 -27 39 -69 102 -95 139 -58 85 -71 129 -71 242 1 115 26 214 106 405
120 290 123 300 122 435 0 102 -5 143 -37 275 -47 203 -53 266 -33 354 35 149
165 330 305 426 96 65 170 158 206 260 9 25 32 98 51 162 60 204 121 312 207
362 33 20 181 86 192 86 1 0 -20 -44 -46 -99 -58 -120 -107 -251 -148 -391
-50 -175 -127 -542 -117 -559 8 -12 111 -39 176 -46 30 -3 64 -8 76 -10 19 -4
29 17 110 245 48 137 89 248 90 247 2 -1 -13 -114 -33 -250 -20 -141 -32 -252
-27 -257 5 -5 82 -17 171 -26 l162 -18 3 -61 3 -60 125 -27 c260 -57 831 -140
847 -124 3 3 11 65 19 138 43 420 128 910 191 1113 28 89 83 228 89 222 2 -2
-6 -41 -16 -86z m2657 -713 c-3 -8 -6 -5 -6 6 -1 11 2 17 5 13 3 -3 4 -12 1
-19z"/>
<path d="M2880 5450 c32 -62 50 -147 50 -232 l0 -78 -64 0 c-34 0 -90 -3 -123
-6 l-60 -7 -7 34 c-11 59 -53 137 -102 189 -26 28 -49 49 -50 47 -2 -2 6 -30
18 -63 13 -36 23 -93 26 -145 l4 -86 -48 -12 c-27 -7 -81 -25 -121 -40 l-71
-28 -13 46 c-14 49 -74 123 -120 147 -41 21 -44 18 -17 -18 36 -50 49 -86 55
-158 l6 -66 -64 -46 c-149 -107 -243 -242 -330 -473 -21 -56 -46 -101 -66
-121 -37 -38 -114 -59 -179 -50 -29 4 -44 2 -44 -5 0 -21 71 -145 123 -214 64
-86 197 -221 297 -301 87 -70 204 -154 215 -154 4 0 -6 15 -22 34 -40 45 -68
106 -94 201 -18 66 -22 110 -23 245 -1 149 1 172 23 233 61 178 228 346 432
434 264 114 550 108 804 -19 107 -53 179 -110 237 -188 147 -200 177 -495 83
-835 -13 -49 -22 -91 -20 -93 6 -6 93 86 124 132 41 59 76 133 103 212 20 61
23 87 22 224 0 138 -3 165 -27 245 -34 112 -114 276 -168 345 l-41 51 16 40
c17 42 20 111 6 144 -7 18 -8 17 -15 -10 -7 -26 -41 -103 -51 -114 -2 -2 -34
19 -71 47 -38 28 -76 57 -86 64 -17 12 -17 18 -6 61 6 27 9 68 5 94 -6 47 -41
132 -69 168 -14 18 -15 14 -10 -58 4 -57 1 -94 -12 -142 -9 -36 -18 -65 -20
-65 -1 0 -27 9 -57 19 -31 11 -90 27 -132 36 l-76 17 0 37 c0 100 -56 220
-133 286 -53 45 -62 44 -37 -5z"/>
<path d="M7190 5439 c-28 -27 -61 -72 -74 -98 -27 -52 -50 -161 -41 -190 5
-16 -4 -20 -57 -30 -35 -7 -96 -23 -136 -37 -40 -13 -74 -24 -76 -24 -8 0 -36
139 -36 177 0 21 4 53 9 71 13 44 1 40 -31 -11 -42 -66 -60 -151 -48 -217 6
-29 12 -56 15 -58 3 -3 -19 -21 -48 -40 -28 -19 -66 -48 -84 -64 -18 -18 -36
-27 -43 -23 -17 10 -50 85 -50 113 0 33 -17 27 -24 -9 -9 -48 -7 -74 9 -124
l16 -45 -40 -52 c-78 -105 -131 -221 -177 -388 -14 -48 -18 -102 -18 -210 -1
-137 1 -150 31 -233 17 -48 46 -113 64 -144 32 -53 148 -188 155 -180 2 2 -10
55 -26 118 -122 486 -7 833 332 998 269 131 579 131 843 -1 196 -98 354 -277
400 -454 20 -76 20 -265 0 -377 -19 -108 -46 -182 -92 -248 -41 -60 -41 -60
102 47 234 175 420 383 489 548 l13 31 -76 0 c-63 0 -84 4 -120 25 -48 28 -60
47 -120 201 -23 59 -67 145 -100 195 -58 88 -169 204 -230 240 -37 22 -46 55
-32 128 12 65 24 91 59 129 37 39 5 36 -50 -6 -51 -39 -84 -86 -98 -137 l-10
-38 -73 28 c-39 16 -93 34 -120 40 l-47 12 0 57 c0 63 22 167 45 211 22 43 4
37 -41 -12 -52 -57 -78 -101 -100 -170 l-18 -58 -115 7 c-66 3 -119 11 -123
17 -22 33 0 197 37 282 13 30 20 54 15 54 -5 0 -32 -23 -60 -51z"/>
<path d="M2813 4716 c-177 -43 -296 -169 -356 -376 -72 -248 -54 -558 42 -752
l30 -60 -32 6 c-74 13 -209 28 -213 23 -13 -12 287 -104 441 -134 137 -27 412
-24 520 6 93 25 207 78 250 116 30 26 30 26 5 21 -14 -3 -54 -8 -90 -11 -36
-3 -75 -8 -88 -11 -22 -5 -22 -4 7 53 57 114 91 280 91 448 0 35 5 57 16 65 8
8 27 34 41 58 23 39 27 59 31 152 7 171 -20 281 -83 340 -35 32 -113 33 -156
1 -15 -12 -31 -21 -34 -21 -3 0 -24 14 -47 30 -23 17 -64 37 -91 45 -61 18
-211 18 -284 1z m566 -121 c45 -23 64 -82 69 -213 5 -135 -2 -176 -33 -208
-33 -33 -102 -34 -133 -1 -29 31 -38 140 -23 266 16 127 33 162 84 170 4 0 21
-6 36 -14z m-392 -212 c56 -26 78 -85 78 -208 0 -215 -87 -331 -186 -248 -51
43 -69 94 -69 198 1 145 28 232 83 259 41 20 51 20 94 -1z"/>
<path d="M7198 4709 c-171 -19 -304 -105 -380 -245 -122 -225 -121 -637 2
-890 l37 -77 -76 7 c-205 18 -198 20 -86 -18 387 -132 781 -136 1026 -11 43
22 131 86 126 91 -2 3 -44 -2 -92 -11 -134 -23 -129 -26 -95 48 48 102 61 170
67 336 l6 154 33 44 c42 55 48 87 41 237 -6 151 -26 217 -78 269 -38 38 -41
39 -94 35 -40 -3 -62 -11 -80 -28 l-24 -23 -40 26 c-75 50 -176 69 -293 56z
m493 -130 c31 -31 47 -77 59 -175 20 -157 -6 -247 -74 -259 -44 -9 -86 11
-104 48 -9 18 -13 72 -14 160 0 136 11 205 38 232 22 22 70 19 95 -6z m-393
-219 c103 -63 109 -348 9 -457 -40 -45 -110 -20 -154 54 -24 41 -28 60 -31
147 -5 112 9 192 40 231 37 48 84 56 136 25z"/>
<path d="M4861 3250 c-67 -29 -124 -100 -142 -178 -23 -102 70 -213 165 -195
35 7 33 14 -15 41 -78 45 -100 127 -56 212 32 63 61 81 148 89 65 6 71 8 53
19 -30 16 -124 24 -153 12z"/>
<path d="M6037 2666 c-106 -39 -155 -106 -203 -279 -38 -137 -117 -262 -202
-320 -52 -35 -170 -47 -529 -54 -555 -10 -1036 52 -1255 163 -54 27 -71 52
-71 104 0 46 21 85 74 138 49 48 38 54 -43 26 -85 -28 -157 -124 -158 -207 -1
-193 301 -301 1015 -363 259 -22 701 -15 890 14 221 35 386 83 536 157 267
131 451 339 425 480 -4 19 -10 35 -14 35 -4 0 -27 -28 -51 -62 l-44 -60 -21
64 c-27 82 -47 112 -97 145 -35 23 -53 27 -127 30 -58 2 -100 -2 -125 -11z
m228 -108 c34 -37 65 -118 65 -169 0 -23 -14 -39 -72 -84 -40 -31 -85 -63
-102 -72 -27 -14 -28 -14 -21 3 12 30 17 197 6 214 -15 23 -27 3 -40 -70 -17
-90 -40 -137 -97 -197 -49 -52 -62 -57 -218 -100 -14 -4 -9 8 22 53 56 84 78
130 117 250 58 180 98 217 228 212 76 -3 80 -4 112 -40z"/>
<path d="M5470 1663 c-69 -12 -183 -16 -423 -17 -277 -1 -327 -3 -325 -15 12
-61 483 -101 683 -57 102 22 210 67 210 86 0 20 -31 21 -145 3z"/>
</g>
</svg>
